{
  "accessors": [
    {
      "bufferView": 2,
      "componentType": 5126,
      "count": 769,
      "max": [
        0.8649275898933411,
        0.9912901520729065,
        0.1379801332950592
      ],
      "min": [
        -0.8649275898933411,
        -0.7126764059066772,
        -0.1379801332950592
      ],
      "type": "VEC3"
    },
    {
      "bufferView": 2,
      "byteOffset": 9228,
      "componentType": 5126,
      "count": 769,
      "max": [
        0.9992995858192444,
        0.9983603954315186,
        1.0
      ],
      "min": [
        -0.9992995262145996,
        -1.0,
        -1.0
      ],
      "type": "VEC3"
    },
    {
      "bufferView": 1,
      "componentType": 5126,
      "count": 769,
      "max": [
        0.8750000596046448,
        1.0
      ],
      "min": [
        0.5002950429916382,
        0.0
      ],
      "type": "VEC2"
    },
    {
      "bufferView": 0,
      "componentType": 5125,
      "count": 4272,
      "type": "SCALAR"
    }
  ],
  "asset": {
    "extras": {
      "author": "renanz (https://sketchfab.com/renanzingameplay)",
      "license": "CC-BY-4.0 (http://creativecommons.org/licenses/by/4.0/)",
      "source": "https://sketchfab.com/3d-models/star-6847cea8bae44539ad569a08ff1063e4",
      "title": "Star"
    },
    "generator": "Sketchfab-15.33.0",
    "version": "2.0"
  },
  "bufferViews": [
    {
      "buffer": 0,
      "byteLength": 17088,
      "name": "floatBufferViews",
      "target": 34963
    },
    {
      "buffer": 0,
      "byteLength": 6152,
      "byteOffset": 17088,
      "byteStride": 8,
      "name": "floatBufferViews",
      "target": 34962
    },
    {
      "buffer": 0,
      "byteLength": 18456,
      "byteOffset": 23240,
      "byteStride": 12,
      "name": "floatBufferViews",
      "target": 34962
    }
  ],
  "buffers": [
    {
      "byteLength": 41696,
      "uri": "scene.bin"
    }
  ],
  "extensionsRequired": [
    "KHR_materials_pbrSpecularGlossiness"
  ],
  "extensionsUsed": [
    "KHR_materials_pbrSpecularGlossiness"
  ],
  "materials": [
    {
      "doubleSided": true,
      "extensions": {
        "KHR_materials_pbrSpecularGlossiness": {
          "diffuseFactor": [
            0.8193024440314856,
            0.7492260306786958,
            0.012243271801910826,
            1.0
          ],
          "glossinessFactor": 0.4921919762041179,
          "specularFactor": [
            0.3411660217106043,
            0.3702868427789494,
            0.0
          ]
        }
      },
      "name": "estrela"
    }
  ],
  "meshes": [
    {
      "name": "pCube1_estrela_0",
      "primitives": [
        {
          "attributes": {
            "NORMAL": 1,
            "POSITION": 0,
            "TEXCOORD_0": 2
          },
          "indices": 3,
          "material": 0,
          "mode": 4
        }
      ]
    }
  ],
  "nodes": [
    {
      "children": [
        1
      ],
      "matrix": [
        1.0,
        0.0,
        0.0,
        0.0,
        0.0,
        2.220446049250313e-16,
        -1.0,
        0.0,
        0.0,
        1.0,
        2.220446049250313e-16,
        0.0,
        0.0,
        0.0,
        0.0,
        1.0
      ],
      "name": "Sketchfab_model"
    },
    {
      "children": [
        2
      ],
      "matrix": [
        0.009999999776482582,
        0.0,
        0.0,
        0.0,
        0.0,
        0.0,
        0.009999999776482582,
        0.0,
        0.0,
        -0.009999999776482582,
        0.0,
        0.0,
        0.0,
        0.0,
        0.0,
        1.0
      ],
      "name": "3a6dc23b3f094edfa2e5ee654989e0fe.fbx"
    },
    {
      "children": [
        3
      ],
      "name": "RootNode"
    },
    {
      "children": [
        4
      ],
      "matrix": [
        7.6312785148620605,
        0.0,
        0.0,
        0.0,
        0.0,
        7.6312785148620605,
        0.0,
        0.0,
        0.0,
        0.0,
        8.696029663085938,
        0.0,
        0.0,
        -0.7587417960166931,
        0.0,
        1.0
      ],
      "name": "pCube1"
    },
    {
      "mesh": 0,
      "name": "pCube1_estrela_0"
    }
  ],
  "scene": 0,
  "scenes": [
    {
      "name": "Sketchfab_Scene",
      "nodes": [
        0
      ]
    }
  ]
}
